<?xml version="1.0" encoding="utf-8"?>
<!-- Generator: Adobe Illustrator 27.5.0, SVG Export Plug-In . SVG Version: 6.00 Build 0)  -->
<svg version="1.1" id="Capa_1" xmlns="http://www.w3.org/2000/svg" xmlns:xlink="http://www.w3.org/1999/xlink" x="0px" y="0px"
	 viewBox="0 0 2122 2122" style="enable-background:new 0 0 2122 2122;" xml:space="preserve">
<path style="fill:#934051;" d="M1056.865,1175.686v-0.351c16.136-1.47,32.055-3.374,48.06-5.911
	c6.213-0.985,12.401-2.022,18.593-3.091c0.022-11.128,0.024-22.252-0.018-33.369c-33.084,4.113-100.274,5.965-126.737-0.233
	c-20.959-4.909-34.252-10.124-43.855-17.827c-3.233-2.593-6.051-5.468-8.599-8.709c-4.99-6.348-31.592-4.59-30.392,26.372
	c1.512-1.374,3.893-1.809,5.584-0.001c12.595,13.469,31.347,19.022,48.539,24.28c19.059,5.829,38.749,9.498,57.74,15.452
	c0.66,0.207,0.484,1.087-0.156,1.149c-21.372,2.069-43.542-2.861-63.832-9.237c-16.14-5.071-38.201-10.796-48.154-25.869
	c-58.358,10.432-181.596,34.76-232.87,62.295c-0.021,0.007-0.039,0.009-0.06,0.017c-211.488,78.466-284.918,520.133-331.988,781.126
	h209.838v0h433.266c107.322-252.03,130.272-526.735,131.641-799.456c-1.378-0.006-2.759,0.003-4.132-0.055l-0.093-0.689
	c1.417-0.242,2.818-0.5,4.231-0.745c0.011-2.3,0.016-4.599,0.024-6.898c-5.849,1.016-11.744,1.917-17.626,2.442
	C1089.713,1177.819,1072.963,1177.535,1056.865,1175.686z"/>
<path style="fill:#5B2D3A;" d="M567.432,1549.726c-0.804-12.922-1.16-25.891-0.899-38.836c0.54-26.72,2.788-53.254,6.341-79.737
	c0.1-0.741-1.06-0.836-1.263-0.171c-7.885,25.826-12.326,52.898-13.299,79.907c-0.482,13.408-0.337,26.821,0.565,40.207
	c0.625,9.261,1.266,18.727,2.837,27.968c-24.545,130.816-43.144,292.305-59.169,402.713h56.011
	c0-178.518,14.781-393.833,40.029-552.637C587.231,1461.454,576.9,1503.014,567.432,1549.726z"/>
<path style="fill:#FACFBC;" d="M1266.083,635.74c-1.667-1.611-3.441-2.912-5.267-4.05c-23.542-14.672-58.884,8.347-70.712,26.589
	c-7.887,12.164-12.13,27.807-15.977,40.938c-16.845-7.529-16.479-34.558-18.887-79.693c-0.298-5.58,1.274-15.26,3.879-27.161
	c0-0.016,1.854-54.902,7.709-116.389c3.193-33.519-67.286-92.989-98.927-81.712c-74.583,24.911-111.651,53.959-160.12,57.379
	c-4.721,10.076-9.952,19.913-15.735,29.42c-42.781-19.077-76.967-54.761-96.96-97.038c-7.943-2.633-17.705-3.75-30.289-2.567
	c-22.794,2.142-39.995,23.996-48.556,36.778c-0.889,31.476-0.799,52.34-0.797,52.647c0.606,11.158,1.344,22.433,2.05,32.923
	c31.367-4.098,89.119-9.355,91.241-7.161c5.653,5.844-3.915,44.762-8.684,51.111c-2.398,3.193-50.203-0.204-79.918,1.048
	c1.662,29.983,7.725,39.243,8.575,50.963c1.307,18.006-19.315,48.718-18.472,80.936c1.612,61.667,29.679,157.444,31.982,172.543
	c4.392,28.795-7.457,72.166,15.412,118.598c28.366,57.591,182.742,29.427,182.742,29.427l131.573-33.491l74.872-104.885
	l-46.283,134.071l-115.589,41.906l-32.038,76.035c9.603,7.703,22.896,12.918,43.855,17.827c26.463,6.198,93.653,4.346,126.737,0.233
	v0c1.941-0.241,3.811-0.487,5.502-0.743c3.814-0.577,7.653-1.281,11.468-2.097c13.352-2.856,26.403-7.084,37.007-12.044
	c4.545-2.126,8.64-4.386,12.117-6.73c2.318-1.563,4.361-3.163,6.08-4.786c1.719-1.622,3.113-3.267,4.131-4.919
	c0.002-0.003,0.007-0.005,0.009-0.008c-25.081-138.645-0.964-320.396-0.964-320.396c28.374,6.959,46.469-16.201,64.856-43.237
	C1286.714,704.172,1289.394,658.279,1266.083,635.74z"/>
<path style="fill:#ED9E8A;" d="M952.907,1114.904l32.038-76.035l115.589-41.906l46.283-134.071l-74.872,104.885l-131.573,33.491
	l3.936,104.926l0,0C946.857,1109.436,949.674,1112.31,952.907,1114.904z"/>
<polygon style="fill:#ED9E8A;" points="793.344,776.126 808.354,794.763 869.726,794.763 798.368,770.122 "/>
<polygon style="fill:#ED9E8A;" points="880.098,663.921 855.713,605.361 852.13,654.883 805.576,763.371 "/>
<path style="fill:#AF804B;" d="M1037.676,549.317c23.256,2.541,40.229,12.614,43.126,14.51c9.174,6.002,18.06,4.217,12.632-8.715
	c-4.89-11.65-16.359-44.188-41.894-48.351c-25.638-4.278-92.657-12.888-94.639-10.552c-4.94,5.822,3.55,44.774,7.746,51.141
	C966.985,550.897,1013.317,546.568,1037.676,549.317z"/>
<path style="fill:#AF804B;" d="M951.229,538.09c1.619,3.391,3.922,9.037,7.395,9.796l0.504-0.49c0.094-1.912-0.529-3.44-1.277-5.113
	c-0.938-2.098-1.865-4.177-2.624-6.383c-1.363-3.962-2.039-8.585-2.457-12.837c-0.428-4.355-1.031-8.624-1.14-13.022
	c-0.058-2.343-0.517-4.616-0.778-6.936c-0.248-2.195-0.491-4.284-0.944-6.429c-0.209-0.992-1.503-1.487-2.05-0.588
	c-4.889,8.04-4.845,19.63-2.12,28.76C947.155,529.594,949.159,533.747,951.229,538.09z"/>
<path style="fill:#AF804B;" d="M938.122,526.109c3.585,10.89,7.855,14.988,9.963,17.523c0.428,0.514,1.199-0.206,0.834-0.821
	c-1.555-2.616-4.645-12.056-5.767-18.236c-0.549-3.026-0.896-6.176-1.091-9.264c-0.109-1.721,0.045-3.468-0.546-5.067
	c-0.524-1.417-1.017-2.846-1.462-4.302l-0.683-0.196c-0.758,1.219-1.473,2.474-2.091,3.805c-0.838,1.806-0.807,3.612-0.762,5.631
	C936.6,518.938,936.974,522.622,938.122,526.109z"/>
<path style="fill:#AF804B;" d="M800.051,547.755c4.768-6.349,14.336-45.267,8.684-51.111c-2.122-2.195-59.874,3.063-91.241,7.161
	c-2.156,0.282-4.192,0.558-6.071,0.826c-8.872,2.864-8.746,44.824-0.197,44.751c2.704-0.257,5.703-0.444,8.907-0.579
	C749.848,547.551,797.653,550.948,800.051,547.755z"/>
<path style="fill:#AF804B;" d="M815.329,538.554c2.35-4.334,4.622-8.479,6.224-13.219c3.081-9.118,3.097-20.709-2.504-28.772
	c-0.627-0.902-2.1-0.413-2.337,0.579c-0.51,2.144-0.781,4.231-1.057,6.425c-0.291,2.32-0.807,4.59-0.866,6.934
	c-0.111,4.397-0.786,8.664-1.262,13.018c-0.465,4.251-1.221,8.871-2.764,12.827c-0.859,2.203-1.911,4.278-2.975,6.372
	c-0.848,1.67-1.555,3.195-1.442,5.108l0.577,0.493C810.883,547.575,813.493,541.938,815.329,538.554z"/>
<path style="fill:#AF804B;" d="M818.932,544.111c2.397-2.526,7.256-6.606,11.313-17.482c1.299-3.483,1.715-7.165,1.799-10.921
	c0.046-2.018,0.076-3.825-0.886-5.635c-0.709-1.334-1.529-2.591-2.397-3.815l-0.779,0.193c-0.503,1.455-1.062,2.881-1.655,4.295
	c-0.669,1.597-0.489,3.345-0.608,5.065c-0.213,3.088-0.6,6.236-1.217,9.26c-1.261,6.177-4.758,15.603-6.524,18.213
	C817.564,543.899,818.446,544.623,818.932,544.111z"/>
<path style="fill:#ED9E8A;" d="M1050.816,596.495c8.465,5.326,13.941,13.686,17.292,20.652l0.006,0.001
	c0,0-3.035-14.251-12.953-24.783c-8.386-8.906-19.157-14.954-48.097-12.104c-26.641,2.624-56.807,38.479-56.807,38.479l0,0
	c6.925-6.071,19.614-14.193,33.031-19.531C1008.731,589.088,1043.645,591.984,1050.816,596.495z"/>
<path style="fill:#FFFFFF;" d="M976.652,627.722c-0.299-9.878,4.789-18.609,12.622-23.498l0.567-0.352
	c-2.64,0.718-5.353,1.557-8.231,2.659c-14.517,5.562-26.032,14.906-32.115,18.573c1.858,3.852,8.794,18.039,12.788,23.622
	c1.347,1.895,14.219,3.293,27.889,3.991C981.541,646.231,976.852,636.652,976.652,627.722z"/>
<path style="fill:#FFFFFF;" d="M1030.172,603.225c-5.526-0.744-10.73-1.434-15.97-1.749c2.266,0.767,4.446,1.745,6.453,2.996
	l0.549,0.349h0.05l0.299,0.25c7.633,5.288,12.672,13.87,12.971,23.349c0.299,10.377-7.633,20.455-13.67,24.346l0.649-0.05
	c13.87-1.596,25.993-6.536,28.737-8.132c5.935-3.431,16.276-10.509,17.722-19.499
	C1058.827,616.935,1043.398,605.006,1030.172,603.225z"/>
<path style="fill:#44B3C0;" d="M1021.553,605.072l-0.299-0.25h-0.05l-0.549-0.349c-2.008-1.252-4.187-2.229-6.453-2.996
	c-7.659-0.46-15.428-0.032-24.361,2.396l-0.567,0.352c-7.833,4.889-12.922,13.62-12.622,23.498c0.2,8.93,4.889,18.509,13.52,24.995
	c12.074,0.599,24.746,0.649,30.683,0.05c6.037-3.891,13.969-13.97,13.67-24.346C1034.225,618.941,1029.187,610.36,1021.553,605.072z
	"/>
<path style="fill:#583636;" d="M1006.049,615.706c-1.204-0.015-2.343,0.195-3.441,0.502c0.099,0.528,0.164,1.069,0.164,1.625
	c0,4.803-3.872,8.694-8.664,8.741c-0.021,0.347-0.09,0.68-0.08,1.036c0.148,6.653,5.902,12.161,12.558,12.258
	c6.944,0.115,12.315-5.221,12.117-11.941C1018.525,621.286,1012.912,615.781,1006.049,615.706z"/>
<path style="fill:#583636;" d="M989.842,603.872c8.933-2.428,16.701-2.856,24.361-2.396c5.24,0.315,10.445,1.005,15.97,1.749
	c13.226,1.781,28.655,13.709,37.79,21.86c1.82,1.625,3.414,3.113,4.665,4.326c0,0-1.249-5.468-4.52-12.264
	c-3.352-6.965-8.827-15.326-17.292-20.652c-7.17-4.511-42.085-7.407-67.527,2.715c-13.418,5.337-26.107,13.459-33.031,19.531
	c-4.083,3.58-6.168,6.449-5.197,7.608c0.614,0.732,2.155,0.131,4.436-1.245c6.083-3.667,17.598-13.011,32.115-18.573
	C984.489,605.428,987.201,604.59,989.842,603.872z"/>
<path style="fill:#FFFFFF;" d="M1002.772,617.833c0-0.557-0.064-1.098-0.164-1.625c-0.763-4.054-4.31-7.124-8.586-7.124
	c-4.832,0-8.749,3.917-8.749,8.75c0,4.832,3.917,8.749,8.749,8.749c0.029,0,0.056-0.008,0.085-0.008
	C998.9,626.527,1002.772,622.636,1002.772,617.833z"/>
<path style="fill:#ED9E8A;" d="M746.954,598.38c6.817-4.447,36.617-9.292,60.657,0.83c9.129,3.844,16.476,8.397,21.579,12.523
	c-9.035-11.116-26.527-29.646-44.043-31.472c-27.344-2.85-37.478,3.895-44.23,13.825c-4.073,5.989-4.893,20.948-4.893,20.948
	s0.006-0.001,0.007-0.001C737.191,609.699,740.029,602.897,746.954,598.38z"/>
<path style="fill:#FFFFFF;" d="M752.743,628.42c0.263-9.18,4.393-17.511,10.763-22.75l0.659-0.599l0.263-0.25h0.044
	c0.924-0.685,1.899-1.282,2.895-1.839c-3.697,0.593-7.518,1.326-11.646,2.378c-7.534,1.92-16.977,6.814-19.957,16.282
	c0.727,6.671,5.085,11.511,8.732,16.693c4.769,6.776,10.388,12.968,18.737,13.131C758.194,646.959,752.525,637.767,752.743,628.42z"
	/>
<path style="fill:#FFFFFF;" d="M810.469,606.408c-7.113-2.354-14.2-3.924-21.872-4.492c0.2,0.093,0.412,0.164,0.609,0.261
	c0.703,0.349,1.406,0.748,2.021,1.148l0.439,0.249c7.425,4.79,12.301,13.82,12.037,24.147c-0.175,8.98-3.295,16.863-10.192,22.451
	l-0.927,0.793c1.081-0.099,2.229-0.176,3.243-0.294c1.32-0.149,2.545-0.299,3.724-0.498c11.455-1.796,16.263-4.84,18.149-5.937
	c7.731-4.34,14.726-22.741,14.726-22.741s-0.399-0.75-1.202-1.948C826.968,615.686,820.313,609.666,810.469,606.408z"/>
<path style="fill:#44B3C0;" d="M791.666,603.574l-0.439-0.249c-0.615-0.4-1.318-0.798-2.021-1.148
	c-0.197-0.098-0.409-0.169-0.609-0.261c-6.484-0.48-13.445-0.182-21.229,1.067c-0.995,0.556-1.971,1.154-2.895,1.839h-0.044
	l-0.263,0.25l-0.659,0.599c-6.37,5.239-10.499,13.57-10.763,22.75c-0.219,9.346,5.451,18.539,10.49,23.046
	c0.017,0.016,0.036,0.037,0.053,0.053c0.967,0.049,2.021,0.1,3.031,0.15c8.172,0.299,18.262,0.34,26.214-0.658l0.053-0.046
	l0.927-0.793c6.897-5.588,10.016-13.47,10.192-22.451C803.967,617.394,799.091,608.364,791.666,603.574z"/>
<path style="fill:#583636;" d="M768.438,626.477c-0.063,0.481-0.153,0.954-0.165,1.45c-0.175,6.721,4.556,12.056,10.67,11.941
	c5.861-0.097,10.928-5.605,11.058-12.258c0.159-6.68-4.655-11.989-10.586-11.904c-1.521,0.019-2.97,0.385-4.293,1.022
	c0.041,0.366,0.098,0.726,0.098,1.105C775.221,622.307,772.253,625.954,768.438,626.477z"/>
<path style="fill:#583636;" d="M755.721,605.361c4.128-1.052,7.949-1.785,11.646-2.378c7.784-1.248,14.745-1.546,21.229-1.067
	c7.672,0.567,14.759,2.138,21.872,4.492c9.844,3.258,16.499,9.278,20.755,13.138c2.966,2.689,4.778,4.339,5.651,3.236
	c1.353-1.708-1.525-6.067-7.686-11.049c-5.102-4.127-12.449-8.68-21.579-12.523c-24.04-10.122-53.841-5.277-60.657-0.83
	c-6.925,4.517-9.764,11.319-10.923,16.652c-0.996,4.577-0.759,8.076-0.759,8.076c0.119-0.52,0.337-0.97,0.492-1.465
	C738.744,612.175,748.187,607.281,755.721,605.361z"/>
<path style="fill:#FFFFFF;" d="M768.438,626.477c3.815-0.522,6.783-4.17,6.783-8.643c0-0.379-0.057-0.739-0.098-1.105
	c-0.483-4.305-3.684-7.645-7.606-7.645c-4.255,0-7.704,3.917-7.704,8.75c0,4.832,3.449,8.749,7.704,8.749
	C767.833,626.582,768.133,626.518,768.438,626.477z"/>
<path style="fill:#EFAD95;" d="M716.314,415.622c-0.026,0.89-0.048,1.74-0.073,2.613c8.561-12.781,25.762-34.635,48.556-36.778
	c12.584-1.182,22.346-0.066,30.289,2.567c-3.237-6.846-6.092-13.867-8.56-21.017C744.579,361.435,717.226,384.621,716.314,415.622z"
	/>
<path style="fill:#EFAD95;" d="M1141.977,383.079c-31.5-34.052-69.845-67.234-102.023-55.371
	c-7.221,2.662-24.713,23.898-25.619,30.167c1.771-12.26,3.541-24.52,5.311-36.78c-13.51,49.003-44.511,92.99-86.118,122.19
	c14.089-32.776,15.252-70.907,3.186-104.479c-2.418,38.988-12.36,77.468-28.933,112.836c48.468-3.42,85.537-32.468,160.12-57.379
	c31.641-11.277,102.12,48.193,98.927,81.712c-5.856,61.486-7.709,116.372-7.709,116.389c7.589-34.653,24.002-88.234,28.98-115.034
	C1191.662,458.154,1169.584,418.303,1141.977,383.079z"/>
<path style="fill:#9C6740;" d="M716.241,418.235c0.025-0.874,0.047-1.723,0.073-2.613c0.912-31,28.264-54.186,70.212-52.614
	c-9.555-27.671-13.195-57.291-9.489-86.412c-9.198,12.27-14.16,27.656-13.863,42.988c-14.382-23.297-17.335-51.66-11.355-78.401
	c-20.015,23.105-52.02,62.864-59.057,88.375c-10.412,37.743,22.682,141.353,22.682,141.353s0-0.027,0-0.029
	C715.443,470.574,715.353,449.711,716.241,418.235z"/>
<path style="fill:#EFAD95;" d="M1198.93,750.777c0,0,23.922-1.073,44.128-18.473c26.477-22.799,30.522-67.941,9.561-79.799
	c-25.913-14.659-30.89,26.477-30.89,26.477s-22.799,17.1-10.178,33.116C1226.334,730.858,1198.93,750.777,1198.93,750.777z"/>
<polygon style="fill:#ED9E8A;" points="802.342,865.166 770.481,838.862 800.671,886.209 871.121,886.209 942.756,831.497 
	868.308,865.166 "/>
<polygon style="fill:#EFAD95;" points="802.342,845.175 770.481,838.862 802.342,865.166 868.308,865.166 942.756,831.497 
	871.385,841.493 "/>
<path style="fill:#AF804B;" d="M763.174,319.584c-0.297-15.332,4.665-30.718,13.863-42.988c-3.706,29.121-0.066,58.741,9.489,86.412
	c2.469,7.15,5.323,14.17,8.56,21.017c19.993,42.277,54.179,77.961,96.96,97.038c5.784-9.507,11.014-19.344,15.735-29.42
	c16.573-35.368,26.515-73.849,28.933-112.836c12.066,33.573,10.903,71.704-3.186,104.479c41.607-29.201,72.608-73.187,86.118-122.19
	c-1.77,12.26-3.54,24.52-5.311,36.78c0.905-6.269,18.397-27.505,25.619-30.167c32.178-11.862,70.523,21.32,102.023,55.371
	c27.608,35.224,49.686,75.074,46.123,94.251c-4.979,26.799-21.391,80.381-28.98,115.034c-2.606,11.9-4.177,21.581-3.879,27.161
	c2.408,45.134,2.042,72.164,18.887,79.693c3.847-13.131,8.09-28.775,15.977-40.938c11.828-18.242,47.17-41.261,70.712-26.589
	c5.883-27.037,14.693-65.991,29.889-126.104c12.083-47.774,20.018-143.946-17.51-190.797
	c-14.174-17.696-44.236-17.651-44.236-17.651s-0.37-25.938-19.81-39.716c-9.841-16.445-146.764-41.094-200.78-82.737
	c-23.767-18.324-53.77-27.407-83.442-32.511c-49.693-8.549-104.445,3.53-140.334,38.949c-16.402,16.188-27.741,37.551-32.774,60.059
	C745.839,267.924,748.792,296.287,763.174,319.584z"/>
<path style="fill:#7E3842;" d="M1570.123,1209.869c-0.009-0.003-0.017-0.008-0.025-0.012
	c-78.268-29.669-244.897-58.838-322.473-71.443c-9.176-3.349-17.336-2.953-22.617-7.204c-0.165,0.326-0.355,0.646-0.634,0.928
	c-4.09,4.141-9.718,6.733-14.852,9.335c-4.935,2.5-9.93,4.883-14.978,7.146c-10.311,4.621-20.835,8.721-31.991,10.71
	c-0.64,0.114-1.036-0.705-0.45-1.069c9.476-5.893,19.495-10.785,29.283-16.138c4.998-2.734,9.929-5.59,14.786-8.568
	c4.64-2.843,9.241-6.161,14.447-7.867c0.093-0.031,0.175-0.014,0.267-0.036c-2.005-6.009,2.956-11.332-1.673-19.432
	c-3.902-6.828-16.87-8.649-19.399-4.584c-0.002,0.003-0.007,0.005-0.009,0.008c-1.019,1.652-2.413,3.297-4.131,4.919
	c-1.718,1.623-3.762,3.223-6.08,4.786c-3.477,2.344-7.573,4.604-12.117,6.73c-10.605,4.96-23.655,9.188-37.007,12.044
	c-3.815,0.816-7.654,1.52-11.468,2.097c-1.691,0.256-3.561,0.502-5.502,0.743v0c0.042,11.118,0.04,22.242,0.018,33.369
	c1.72-0.297,3.445-0.548,5.166-0.859c7.205-1.303,14.561-2.678,21.9-1.732c0.64,0.082,0.868,0.806,0.325,1.198
	c-6.45,4.664-14.302,6.597-21.996,8.064c-1.792,0.342-3.614,0.617-5.421,0.931c-0.008,2.299-0.012,4.598-0.024,6.898
	c14.908-2.583,29.548-5.403,43.875-10.594c15.468-5.605,29.894-13.797,45.462-18.977c0.571-0.19,0.961,0.577,0.569,0.977
	c-11.516,11.763-28.269,18.372-43.857,22.825c-14.789,4.225-30.562,7.326-46.054,7.258
	c-1.369,272.72-24.319,547.425-131.641,799.456h705.228v0h43.925h31.625C1674.787,1706.086,1779.139,1297.391,1570.123,1209.869z"/>
<path style="fill:#432D36;" d="M1480.514,1336.223c-113.086,188.797-162.442,560.237-158.759,645.555h67.664
	C1368.858,1927.352,1380.72,1555.38,1480.514,1336.223z"/>
<path style="fill:#5B2D3A;" d="M961.791,1164.208c20.29,6.376,42.46,11.306,63.832,9.237c0.639-0.062,0.816-0.942,0.156-1.149
	c-18.99-5.953-38.681-9.622-57.74-15.452c-17.192-5.258-35.944-10.811-48.539-24.28c-1.69-1.808-4.072-1.373-5.584,0.001
	c-1.32,1.2-1.983,3.109-0.844,4.958c0.174,0.283,0.382,0.539,0.565,0.816C923.591,1153.412,945.651,1159.137,961.791,1164.208z"/>
<path style="fill:#5B2D3A;" d="M1206.172,1133.556c-4.857,2.977-9.788,5.833-14.786,8.568c-9.788,5.353-19.806,10.246-29.283,16.138
	c-0.585,0.364-0.189,1.183,0.45,1.069c11.156-1.99,21.68-6.089,31.991-10.71c5.048-2.263,10.043-4.645,14.978-7.146
	c5.135-2.602,10.762-5.194,14.852-9.335c0.278-0.282,0.469-0.602,0.634-0.928c1.342-2.655-0.911-6.361-4.122-5.558
	c-0.092,0.023-0.174,0.006-0.267,0.036C1215.413,1127.395,1210.812,1130.713,1206.172,1133.556z"/>
<path style="fill:#5B2D3A;" d="M1056.865,1175.335v0.351c16.098,1.849,32.848,2.133,49.001,0.691
	c5.883-0.524,11.777-1.426,17.626-2.442c1.807-0.314,3.629-0.588,5.421-0.931c7.694-1.468,15.546-3.401,21.996-8.064
	c0.542-0.392,0.314-1.116-0.325-1.198c-7.339-0.946-14.695,0.429-21.9,1.732c-1.721,0.311-3.446,0.562-5.166,0.859
	c-6.191,1.068-12.38,2.106-18.593,3.091C1088.92,1171.961,1073.001,1173.865,1056.865,1175.335z"/>
<path style="fill:#5B2D3A;" d="M1000.99,1185.561c12.69,2.262,25.474,3.841,38.352,4.45c6.466,0.305,13.021,0.624,19.494,0.348
	c6.748-0.289,12.96-2.051,19.571-3.043l-0.077-0.574c-6.499-0.246-12.958-1.598-19.494-1.862
	c-6.118-0.247-12.233-0.276-18.348-0.655c-13.47-0.836-26.959-2.227-40.274-4.436c-25.5-4.231-49.417-12.711-74.198-19.437
	c-0.51-0.139-0.823,0.586-0.361,0.855C948.115,1174.31,975.548,1181.026,1000.99,1185.561z"/>
<path style="fill:#5B2D3A;" d="M1119.331,1182.268c1.373,0.058,2.754,0.049,4.132,0.055c15.493,0.068,31.265-3.033,46.054-7.258
	c15.588-4.453,32.341-11.062,43.857-22.825c0.392-0.4,0.001-1.167-0.569-0.977c-15.568,5.18-29.994,13.372-45.462,18.977
	c-14.327,5.191-28.967,8.011-43.875,10.594c-1.412,0.245-2.813,0.503-4.231,0.745L1119.331,1182.268z"/>
</svg>
